HIERARCHY
ROOT hip
{
	OFFSET 0.000000 0.000000 0.000000
	CHANNELS 6 Xposition Yposition Zposition Zrotation Yrotation Xrotation 
	JOINT lhipjoint
	{
		OFFSET 0.000000 0.000000 0.000000
		CHANNELS 3 Zrotation Yrotation Xrotation
		JOINT lfemur
		{
			OFFSET 1.363060 -1.794630 0.839290
			CHANNELS 3 Zrotation Yrotation Xrotation
			JOINT ltibia
			{
				OFFSET 2.448110 -6.726130 0.000000
				CHANNELS 3 Zrotation Yrotation Xrotation
				JOINT lfoot
				{
					OFFSET 2.562200 -7.039590 0.000000
					CHANNELS 3 Zrotation Yrotation Xrotation
					JOINT ltoes
					{
						OFFSET 0.157640 -0.433110 2.322550
						CHANNELS 3 Zrotation Yrotation Xrotation
						End Site
						{
							OFFSET 0.000000 0.000000 0.000000
						}
					}
				}
			}
		}
	}
	JOINT rhipjoint
	{
		OFFSET 0.000000 0.000000 0.000000
		CHANNELS 3 Zrotation Yrotation Xrotation
		JOINT rfemur
		{
			OFFSET -1.305520 -1.794630 0.839290
			CHANNELS 3 Zrotation Yrotation Xrotation
			JOINT rtibia
			{
				OFFSET -2.542530 -6.985550 0.000000
				CHANNELS 3 Zrotation Yrotation Xrotation
				JOINT rfoot
				{
					OFFSET -2.568260 -7.056230 0.000000
					CHANNELS 3 Zrotation Yrotation Xrotation
					JOINT rtoes
					{
						OFFSET -0.164730 -0.452590 2.363150
						CHANNELS 3 Zrotation Yrotation Xrotation
						End Site
						{
							OFFSET 0.000000 0.000000 0.000000
						}
					}
				}
			}
		}
	}
	JOINT lowerback
	{
		OFFSET 0.000000 0.000000 0.000000
		CHANNELS 3 Zrotation Yrotation Xrotation
		JOINT upperback
		{
			OFFSET 0.028270 2.035590 -0.193380
			CHANNELS 3 Zrotation Yrotation Xrotation
			JOINT thorax
			{
				OFFSET 0.056720 2.048850 -0.042750
				CHANNELS 3 Zrotation Yrotation Xrotation
				JOINT lowerneck
				{
					OFFSET 0.000000 0.000000 0.000000
					CHANNELS 3 Zrotation Yrotation Xrotation
					JOINT upperneck
					{
						OFFSET -0.054170 1.746240 0.172020
						CHANNELS 3 Zrotation Yrotation Xrotation
						JOINT head
						{
							OFFSET 0.104070 1.761360 -0.123970
							CHANNELS 3 Zrotation Yrotation Xrotation
							End Site
							{
								OFFSET 0.000000 0.000000 0.000000
							}
						}
					}
				}
				JOINT lclavicle
				{
					OFFSET 0.000000 0.000000 0.000000
					CHANNELS 3 Zrotation Yrotation Xrotation
					JOINT lhumerus
					{
						OFFSET 3.362410 1.200890 -0.311210
						CHANNELS 3 Zrotation Yrotation Xrotation
						JOINT lradius
						{
							OFFSET 4.983000 -0.000000 -0.000000
							CHANNELS 3 Zrotation Yrotation Xrotation
							JOINT lwrist
							{
								OFFSET 3.483560 -0.000000 -0.000000
								CHANNELS 3 Zrotation Yrotation Xrotation
								JOINT lhand
								{
									OFFSET 0.000000 0.000000 0.000000
									CHANNELS 3 Zrotation Yrotation Xrotation
									JOINT lfingers
									{
										OFFSET 0.715260 -0.000000 -0.000000
										CHANNELS 3 Zrotation Yrotation Xrotation
										End Site
										{
											OFFSET 0.000000 0.000000 0.000000
										}
									}
								}
								JOINT lthumb
								{
									OFFSET 0.000000 0.000000 0.000000
									CHANNELS 3 Zrotation Yrotation Xrotation
									End Site
									{
										OFFSET 0.000000 0.000000 0.000000
									}
								}
							}
						}
					}
				}
				JOINT rclavicle
				{
					OFFSET 0.000000 0.000000 0.000000
					CHANNELS 3 Zrotation Yrotation Xrotation
					JOINT rhumerus
					{
						OFFSET -3.136600 1.374050 -0.404650
						CHANNELS 3 Zrotation Yrotation Xrotation
						JOINT rradius
						{
							OFFSET -5.241900 -0.000000 -0.000000
							CHANNELS 3 Zrotation Yrotation Xrotation
							JOINT rwrist
							{
								OFFSET -3.444170 -0.000000 -0.000000
								CHANNELS 3 Zrotation Yrotation Xrotation
								JOINT rhand
								{
									OFFSET 0.000000 0.000000 0.000000
									CHANNELS 3 Zrotation Yrotation Xrotation
									JOINT rfingers
									{
										OFFSET -0.622530 -0.000000 -0.000000
										CHANNELS 3 Zrotation Yrotation Xrotation
										End Site
										{
											OFFSET 0.000000 0.000000 0.000000
										}
									}
								}
								JOINT rthumb
								{
									OFFSET 0.000000 0.000000 0.000000
									CHANNELS 3 Zrotation Yrotation Xrotation
									End Site
									{
										OFFSET 0.000000 0.000000 0.000000
									}
								}
							}
						}
					}
				}
			}
		}
	}
}
MOTION
Frames: 8
Frame Time: 0.008333
1.025041 18.027334 -3.358211 -175.247375 -14.745762 169.018893 -1.659980 2.817693 2.342945 -5.399167 0.155327 -2.041572 2.577037 9.693205 29.522048 0.555865 -1.710372 5.096114 1.809200 -8.456700 -24.110000 0.535532 -4.240277 1.772930 27.249673 -2.105499 3.558122 -1.749427 -5.948776 21.820853 2.457802 -11.847173 -6.580979 -0.078800 -1.810400 4.981900 0.185539 -0.594805 13.792754 1.054163 -1.308238 -3.921730 5.418942 -0.378121 -0.004752 -7.484227 -6.052939 -9.233731 -1.010530 -6.696358 5.775136 4.100000 -3.212600 4.293600 -2.419226 1.255738 -0.641616 -13.383225 -11.339892 2.625652 68.341986 -58.266593 -44.261128 0.284318 -1.307531 -83.123914 21.209313 -9.858684 -3.830800 -7.125000 0.000000 0.000000 -3.196200 19.922500 1.918800 3.451087 0.751857 2.106450 25.307274 4.687368 -10.984142 -89.143789 57.752609 -53.974624 0.687433 -2.135040 -24.920955 -30.751536 5.624614 -4.840400 7.125000 0.000000 0.000000 -2.630800 -20.421800 -1.549100 
1.036623 18.023131 -3.358211 -175.239890 -14.923436 169.028591 -1.651649 2.828505 2.355710 -5.375452 0.356571 -1.804039 2.599147 9.725861 29.635527 0.570531 -1.820911 4.934627 1.790300 -8.414800 -23.981300 0.539087 -4.239617 1.772775 27.322997 -2.032729 3.476023 -1.775313 -5.998450 21.975356 2.489165 -12.007256 -6.782441 -0.081300 -1.838900 5.060600 0.066890 -0.620196 13.648146 1.048483 -1.346941 -3.941004 5.579348 -0.397490 -0.030249 -7.551532 -6.115205 -9.249544 -1.038177 -6.781143 5.877712 4.088500 -3.268800 4.372400 -2.409564 1.175160 -0.582997 -10.605989 -12.253936 1.320318 68.019624 -58.007554 -43.959290 0.328007 -1.394162 -83.690644 21.015603 -10.190516 -3.924500 -7.125000 0.000000 0.000000 -3.281000 19.627400 1.991500 3.533697 0.797102 1.957237 22.752815 5.913201 -12.870470 -89.247601 57.859837 -54.141939 0.648411 -2.081621 -25.053752 -31.482484 5.986210 -5.161000 7.125000 0.000000 0.000000 -3.113400 -19.998000 -1.863600 
1.047590 18.018519 -3.356981 -175.210876 -15.091281 169.036192 -1.644019 2.839056 2.370396 -5.333333 0.544767 -1.550797 2.609525 9.739427 29.683427 0.581301 -1.907229 4.750885 1.785300 -8.403700 -23.947100 0.540989 -4.239944 1.773548 27.419159 -1.956710 3.384490 -1.803052 -6.051235 22.141870 2.517721 -12.157357 -6.988422 -0.083600 -1.864900 5.132500 -0.032117 -0.642724 13.523828 1.045350 -1.378997 -3.963803 5.737419 -0.411507 -0.073879 -7.615916 -6.172158 -9.297945 -1.071329 -6.861948 6.009548 4.067600 -3.326800 4.476400 -2.380879 1.086419 -0.513997 -7.866618 -13.136983 -0.083889 67.561107 -57.733098 -43.505580 0.369360 -1.475454 -84.340023 20.648262 -10.421619 -3.945300 -7.125000 0.000000 0.000000 -3.489300 19.444400 2.132600 3.605073 0.846853 1.785652 20.205488 7.151109 -14.858560 -89.143927 58.016022 -54.090457 0.613481 -2.037239 -25.168759 -32.212822 6.302522 -5.473100 7.125000 0.000000 0.000000 -3.594800 -19.606800 -2.184400 
1.056301 18.013189 -3.355751 -175.185470 -15.263251 169.032539 -1.637248 2.850372 2.385864 -5.300242 0.743156 -1.256412 2.606000 9.728259 29.649998 0.588754 -1.975999 4.516346 1.783600 -8.400000 -23.935800 0.542180 -4.241420 1.774067 27.498208 -1.894719 3.287251 -1.834563 -6.111939 22.331653 2.544600 -12.298181 -7.173322 -0.087200 -1.904800 5.242600 -0.125225 -0.674633 13.411287 1.045114 -1.423148 -3.986013 5.895723 -0.430125 -0.126855 -7.687112 -6.212201 -9.338881 -1.104787 -6.918602 6.141406 4.047600 -3.373100 4.576800 -2.336181 0.998085 -0.433440 -5.207592 -13.984469 -1.594708 66.944282 -57.443689 -42.880905 0.405333 -1.546710 -85.057254 20.193960 -10.616230 -3.935600 -7.125000 0.000000 0.000000 -3.764100 19.295600 2.313800 3.663512 0.901594 1.591752 17.622619 8.432951 -16.904331 -88.790906 58.235317 -53.783253 0.587251 -2.001032 -25.335522 -32.909974 6.499593 -5.722100 7.125000 0.000000 0.000000 -4.061700 -19.339000 -2.493700 
1.063886 18.007040 -3.354316 -175.156420 -15.421827 169.031478 -1.629684 2.861331 2.400554 -5.274058 0.942025 -0.938988 2.587851 9.690362 29.529572 0.588405 -1.996951 4.250307 1.816900 -8.473800 -24.162600 0.543699 -4.242304 1.774644 27.589944 -1.781005 3.194251 -1.869119 -6.179758 22.543604 2.569076 -12.438781 -7.406544 -0.091000 -1.945700 5.355600 -0.189864 -0.693168 13.299042 1.040370 -1.448040 -4.005743 6.005457 -0.436143 -0.177998 -7.741799 -6.275138 -9.383242 -1.125421 -7.008896 6.256701 4.027700 -3.432500 4.672400 -2.278110 0.913413 -0.343409 -2.656209 -14.874868 -3.302212 66.247785 -57.162978 -42.153598 0.435668 -1.605813 -85.849861 19.606438 -10.648900 -3.838900 -7.125000 0.000000 0.000000 -4.136900 19.315200 2.542300 3.707427 0.963082 1.384860 15.058227 9.683870 -19.067492 -88.218583 58.509119 -53.262460 0.564369 -1.971317 -25.512593 -33.547127 6.668107 -5.951200 7.125000 0.000000 0.000000 -4.486100 -19.099000 -2.779800 
1.069831 17.999353 -3.351241 -175.126507 -15.589722 169.030251 -1.624789 2.872238 2.416315 -5.266447 1.096283 -0.588077 2.552137 9.621694 29.306876 0.578018 -1.955286 3.952791 1.867100 -8.583600 -24.501200 0.543875 -4.243942 1.774480 27.665239 -1.710875 3.065999 -1.908328 -6.256976 22.786521 2.585494 -12.546970 -7.634700 -0.093500 -1.971600 5.427100 -0.253625 -0.717402 13.206629 1.042275 -1.479521 -4.026219 6.138781 -0.445680 -0.238250 -7.836950 -6.332434 -9.447310 -1.148217 -7.083999 6.382928 4.011700 -3.486400 4.780600 -2.208895 0.829231 -0.247462 -0.227189 -15.769811 -5.163689 65.397406 -56.868394 -41.272074 0.459079 -1.653690 -86.672606 18.985583 -10.526002 -3.681400 -7.125000 0.000000 0.000000 -4.537900 19.488200 2.772700 3.741286 1.025467 1.161165 12.504774 10.973187 -21.304702 -87.498585 58.829943 -52.584767 0.547633 -1.949013 -25.678287 -34.068962 6.760333 -6.115600 7.125000 0.000000 0.000000 -4.837000 -18.950400 -3.014800 
1.074340 17.991461 -3.348166 -175.101996 -15.745088 169.026736 -1.620930 2.883835 2.433244 -5.276307 1.245777 -0.201051 2.499172 9.520813 28.980502 0.560655 -1.871831 3.610150 1.941900 -8.743900 -24.997400 0.543704 -4.246428 1.775000 27.723652 -1.647209 2.930382 -1.948249 -6.336280 23.034963 2.596588 -12.632864 -7.848808 -0.095400 -1.991700 5.482800 -0.329358 -0.751106 13.127909 1.045568 -1.525061 -4.049340 6.264659 -0.460772 -0.318670 -7.871565 -6.365262 -9.510746 -1.186146 -7.132772 6.501897 3.972100 -3.526400 4.877700 -2.126353 0.746588 -0.148037 2.197864 -16.579053 -7.005824 64.537241 -56.579091 -40.366199 0.476599 -1.695617 -87.605336 18.518832 -10.364235 -3.545800 -7.125000 0.000000 0.000000 -4.832800 19.678400 2.933500 3.767352 1.088646 0.925561 10.000574 12.371430 -23.589907 -86.672703 59.190220 -51.792573 0.537408 -1.934897 -25.858819 -34.476635 6.795091 -6.224600 7.125000 0.000000 0.000000 -5.113900 -18.871700 -3.197600 
1.077108 17.983876 -3.344066 -175.090579 -15.918133 169.023610 -1.617474 2.894951 2.448717 -5.319324 1.369220 0.217160 2.428381 9.386294 28.548541 0.542077 -1.781228 3.262649 2.040400 -8.949700 -25.638200 0.544008 -4.248816 1.774217 27.758088 -1.597117 2.796498 -1.988039 -6.415604 23.283106 2.604245 -12.709382 -8.081511 -0.100900 -2.048400 5.639500 -0.404309 -0.783294 13.049380 1.048743 -1.569884 -4.067878 6.381871 -0.476155 -0.377379 -7.932059 -6.414457 -9.596522 -1.210470 -7.199767 6.622094 3.942000 -3.574300 4.983700 -2.036191 0.672371 -0.049020 4.594107 -17.415336 -8.909105 63.609662 -56.292493 -39.369131 0.483720 -1.723791 -88.544740 18.167211 -10.156371 -3.420300 -7.125000 0.000000 0.000000 -5.055800 19.895300 3.045300 3.782743 1.147532 0.690102 7.554986 13.807233 -25.948814 -85.805565 59.574558 -50.963012 0.532666 -1.924479 -25.971393 -34.776424 6.729882 -6.246100 7.125000 0.000000 0.000000 -5.329900 -18.920000 -3.328100 
